<svg aria-hidden="true" style="position: absolute; width: 0; height: 0; overflow: hidden;" version="1.1" xmlns="http://www.w3.org/2000/svg" xmlns:xlink="http://www.w3.org/1999/xlink">
<defs>
<symbol id="trash-2" viewBox="0 0 32 32">
<path fill="none" stroke="#ea3d65" style="stroke: var(--color1, #ea3d65)" stroke-linejoin="round" stroke-linecap="round" stroke-miterlimit="4" stroke-width="3" d="M4 8h24"></path>
<path fill="none" stroke="#ea3d65" style="stroke: var(--color1, #ea3d65)" stroke-linejoin="round" stroke-linecap="round" stroke-miterlimit="4" stroke-width="3" d="M25.333 8v18.667c0 0.707-0.281 1.385-0.781 1.886s-1.178 0.781-1.886 0.781h-13.333c-0.707 0-1.386-0.281-1.886-0.781s-0.781-1.178-0.781-1.886v-18.667M10.666 8v-2.667c0-0.707 0.281-1.386 0.781-1.886s1.178-0.781 1.886-0.781h5.333c0.707 0 1.386 0.281 1.886 0.781s0.781 1.178 0.781 1.886v2.667"></path>
<path fill="none" stroke="#ea3d65" style="stroke: var(--color1, #ea3d65)" stroke-linejoin="round" stroke-linecap="round" stroke-miterlimit="4" stroke-width="3" d="M13.334 14.667v8"></path>
<path fill="none" stroke="#ea3d65" style="stroke: var(--color1, #ea3d65)" stroke-linejoin="round" stroke-linecap="round" stroke-miterlimit="4" stroke-width="3" d="M18.666 14.667v8"></path>
</symbol>
<symbol id="sun" viewBox="0 0 32 32">
<path fill="#3e85f3" style="fill: var(--color2, #3e85f3)" d="M9.324 16c0 3.681 2.995 6.676 6.676 6.676s6.676-2.995 6.676-6.676c0-3.681-2.995-6.676-6.676-6.676s-6.676 2.995-6.676 6.676zM16 11.991c2.211 0 4.009 1.799 4.009 4.009s-1.799 4.009-4.009 4.009c-2.211 0-4.009-1.799-4.009-4.009s1.799-4.009 4.009-4.009zM14.664 25.333h2.667v4h-2.667v-4zM14.664 2.667h2.667v4h-2.667v-4zM2.664 14.667h4v2.667h-4v-2.667zM25.331 14.667h4v2.667h-4v-2.667zM5.625 24.484l2.827-2.829 1.887 1.885-2.827 2.829-1.887-1.885zM21.653 8.459l2.829-2.829 1.885 1.885-2.829 2.829-1.885-1.885zM8.456 10.345l-2.829-2.829 1.887-1.885 2.827 2.829-1.884 1.885zM26.368 24.485l-1.885 1.885-2.829-2.829 1.885-1.885 2.829 2.829z"></path>
</symbol>
<symbol id="moon" viewBox="0 0 32 32">
<path fill="#3e85f3" style="fill: var(--color2, #3e85f3)" d="M27.656 17.393c-0.904 0.24-1.834 0.361-2.769 0.361-2.847 0-5.52-1.107-7.528-3.115-1.319-1.326-2.267-2.975-2.749-4.782s-0.484-3.709-0.002-5.516c0.060-0.226 0.060-0.464-0.001-0.689s-0.18-0.432-0.345-0.597c-0.165-0.165-0.371-0.284-0.597-0.344s-0.464-0.060-0.69 0c-2.262 0.603-4.327 1.79-5.985 3.443-5.197 5.197-5.197 13.657 0 18.857 1.235 1.242 2.705 2.227 4.323 2.898s3.354 1.014 5.106 1.009c1.752 0.005 3.487-0.338 5.105-1.008s3.087-1.655 4.322-2.897c1.654-1.659 2.841-3.724 3.444-5.988 0.060-0.226 0.059-0.463-0.002-0.689s-0.18-0.431-0.345-0.596-0.371-0.284-0.596-0.345c-0.226-0.061-0.463-0.061-0.689-0.001zM23.96 23.128c-0.988 0.993-2.163 1.781-3.458 2.317s-2.682 0.81-4.084 0.807c-1.402 0.003-2.79-0.271-4.085-0.807s-2.471-1.324-3.459-2.318c-4.157-4.159-4.157-10.927 0-15.085 0.803-0.802 1.731-1.47 2.747-1.977-0.149 1.919 0.119 3.847 0.784 5.653s1.712 3.447 3.070 4.811c1.361 1.362 3.002 2.412 4.808 3.077s3.736 0.931 5.656 0.777c-0.51 1.014-1.178 1.941-1.979 2.745z"></path>
</symbol>
<symbol id="calendar-check" viewBox="0 0 32 32">
<path fill="none" stroke="#84828a" style="stroke: var(--color3, #84828a)" stroke-linejoin="round" stroke-linecap="round" stroke-miterlimit="4" stroke-width="2.6667" d="M28 13.333h-24M28 16.667v-4.933c0-2.24 0-3.36-0.436-4.216-0.383-0.753-0.995-1.365-1.748-1.748-0.856-0.436-1.976-0.436-4.216-0.436h-11.2c-2.24 0-3.36 0-4.216 0.436-0.753 0.383-1.365 0.995-1.748 1.748-0.436 0.856-0.436 1.976-0.436 4.216v11.2c0 2.24 0 3.36 0.436 4.216 0.383 0.753 0.995 1.365 1.748 1.748 0.856 0.436 1.976 0.436 4.216 0.436h5.6M21.333 2.667v5.333M10.667 2.667v5.333M19.333 25.333l2.667 2.667 6-6"></path>
</symbol>
<symbol id="user-check" viewBox="0 0 32 32">
<path fill="none" stroke="#84828a" style="stroke: var(--color3, #84828a)" stroke-linejoin="round" stroke-linecap="round" stroke-miterlimit="4" stroke-width="2.6667" d="M21.333 24l2.667 2.667 5.333-5.333"></path>
<path fill="none" stroke="#84828a" style="stroke: var(--color3, #84828a)" stroke-linejoin="round" stroke-linecap="round" stroke-miterlimit="4" stroke-width="2.6667" d="M16 20.667h-6c-1.861 0-2.791 0-3.548 0.23-1.705 0.517-3.038 1.851-3.555 3.556-0.23 0.757-0.23 1.687-0.23 3.548v0"></path>
<path fill="none" stroke="#84828a" style="stroke: var(--color3, #84828a)" stroke-linejoin="round" stroke-linecap="round" stroke-miterlimit="4" stroke-width="2.6667" d="M13.333 16c3.314 0 6-2.686 6-6s-2.686-6-6-6c-3.314 0-6 2.686-6 6s2.686 6 6 6z"></path>
</symbol>
<symbol id="trash" viewBox="0 0 32 32">
<path stroke-linejoin="round" stroke-linecap="round" stroke-miterlimit="4" stroke-width="2.6" d="M12 4h8"></path>
<path stroke-linejoin="round" stroke-linecap="round" stroke-miterlimit="4" stroke-width="2.6" d="M4 8h24"></path>
<path stroke-linejoin="round" stroke-linecap="round" stroke-miterlimit="4" stroke-width="2.6" d="M6.667 8l0.801 12.018c0.149 2.231 0.223 3.347 0.588 4.243 0.662 1.627 2.004 2.883 3.672 3.435 0.919 0.304 2.037 0.304 4.273 0.304v0c2.236 0 3.354 0 4.273-0.304 1.668-0.552 3.009-1.808 3.671-3.435 0.365-0.896 0.439-2.012 0.588-4.243l0.801-12.018"></path>
</symbol>
<symbol id="pencil" viewBox="0 0 32 32">
<path stroke-linejoin="round" stroke-linecap="round" stroke-miterlimit="4" stroke-width="2.6" d="M3.333 28.667l7.399-2.846c0.473-0.182 0.71-0.273 0.931-0.392 0.197-0.106 0.384-0.227 0.56-0.364 0.198-0.154 0.378-0.333 0.736-0.692l15.040-15.040c1.473-1.473 1.473-3.861 0-5.333s-3.861-1.473-5.333 0l-15.040 15.040c-0.359 0.359-0.538 0.538-0.692 0.736-0.137 0.176-0.259 0.364-0.364 0.561-0.119 0.221-0.21 0.458-0.392 0.931l-2.846 7.399zM3.333 28.667l2.744-7.135c0.196-0.511 0.295-0.766 0.463-0.883 0.147-0.102 0.329-0.141 0.505-0.107 0.201 0.038 0.395 0.232 0.782 0.619l3.012 3.012c0.387 0.387 0.58 0.58 0.619 0.782 0.034 0.176-0.005 0.358-0.107 0.505-0.117 0.168-0.372 0.267-0.883 0.463l-7.135 2.744z"></path>
</symbol>
<symbol id="arrow" viewBox="0 0 32 32">
<path stroke-linejoin="round" stroke-linecap="round" stroke-miterlimit="4" stroke-width="2.6" d="M4.451 9.333c2.305-3.985 6.614-6.667 11.55-6.667 7.364 0 13.333 5.97 13.333 13.333s-5.97 13.333-13.333 13.333c-4.935 0-9.244-2.681-11.55-6.667"></path>
<path stroke-linejoin="round" stroke-linecap="round" stroke-miterlimit="4" stroke-width="2.6" d="M16 21.333l5.333-5.333-5.333-5.333"></path>
<path stroke-linejoin="round" stroke-linecap="round" stroke-miterlimit="4" stroke-width="2.6" d="M2.667 16h18.667"></path>
</symbol>
<symbol id="add" viewBox="0 0 32 32">
<path stroke-linejoin="round" stroke-linecap="round" stroke-miterlimit="4" stroke-width="2.6667" d="M16 10.667v10.667M10.667 16h10.667M29.333 16c0 7.364-5.97 13.333-13.333 13.333s-13.333-5.97-13.333-13.333c0-7.364 5.97-13.333 13.333-13.333s13.333 5.97 13.333 13.333z"></path>
</symbol>
<symbol id="done" viewBox="0 0 32 32">
<path fill="#3cbc81" style="fill: var(--color4, #3cbc81)" d="M14.133 18.4l-2.9-2.9c-0.244-0.244-0.55-0.361-0.916-0.349s-0.673 0.138-0.917 0.383-0.367 0.556-0.367 0.933c0 0.378 0.122 0.689 0.367 0.933l3.8 3.8c0.244 0.244 0.556 0.367 0.933 0.367s0.689-0.122 0.933-0.367l7.567-7.567c0.244-0.244 0.361-0.55 0.351-0.917s-0.14-0.672-0.384-0.916-0.556-0.367-0.933-0.367c-0.378 0-0.689 0.122-0.933 0.367l-6.6 6.6zM16 29.333c-1.844 0-3.578-0.35-5.2-1.051s-3.033-1.649-4.233-2.849-2.15-2.611-2.849-4.233c-0.7-1.622-1.051-3.356-1.051-5.2s0.35-3.578 1.051-5.2c0.7-1.622 1.649-3.033 2.849-4.233s2.611-2.15 4.233-2.851c1.622-0.7 3.356-1.049 5.2-1.049s3.578 0.35 5.2 1.049c1.622 0.7 3.033 1.651 4.233 2.851s2.15 2.611 2.849 4.233c0.7 1.622 1.051 3.356 1.051 5.2s-0.35 3.578-1.051 5.2c-0.7 1.622-1.649 3.033-2.849 4.233s-2.611 2.15-4.233 2.849c-1.622 0.7-3.356 1.051-5.2 1.051zM16 26.667c2.956 0 5.472-1.039 7.551-3.116s3.116-4.595 3.116-7.551c0-2.956-1.039-5.472-3.116-7.551s-4.595-3.116-7.551-3.116c-2.956 0-5.472 1.039-7.549 3.116s-3.117 4.595-3.117 7.551c0 2.956 1.039 5.472 3.117 7.551s4.594 3.116 7.549 3.116z"></path>
</symbol>
<symbol id="error" viewBox="0 0 32 32">
<path fill="#e74a3b" style="fill: var(--color5, #e74a3b)" d="M14.667 20h2.667v2.667h-2.667v-2.667zM14.667 9.333h2.667v8h-2.667v-8zM15.987 2.667c-7.36 0-13.32 5.973-13.32 13.333s5.96 13.333 13.32 13.333c7.373 0 13.347-5.973 13.347-13.333s-5.973-13.333-13.347-13.333zM16 26.667c-5.893 0-10.667-4.773-10.667-10.667s4.773-10.667 10.667-10.667c5.893 0 10.667 4.773 10.667 10.667s-4.773 10.667-10.667 10.667z"></path>
</symbol>
<symbol id="log-in" viewBox="0 0 32 32">
<path stroke-linejoin="round" stroke-linecap="round" stroke-miterlimit="4" stroke-width="3.2" d="M20 4h1.6c2.24 0 3.36 0 4.216 0.436 0.753 0.383 1.364 0.995 1.748 1.748 0.436 0.856 0.436 1.976 0.436 4.216v11.2c0 2.24 0 3.36-0.436 4.216-0.384 0.753-0.995 1.364-1.748 1.748-0.856 0.436-1.976 0.436-4.216 0.436h-1.6M13.333 9.333l6.667 6.667M20 16l-6.667 6.667M20 16h-16"></path>
</symbol>
</defs>
</svg>
